# Blender 4.0.2
# www.blender.org
mtllib billboard.mtl
o Cube.001
v -1.000000 -1.000000 0.000000 1.0000 1.0000 1.0000
v -1.000000 1.000000 -0.000000 1.0000 1.0000 1.0000
v 1.000000 -1.000000 0.000000 1.0000 1.0000 1.0000
v 1.000000 1.000000 -0.000000 1.0000 1.0000 1.0000
v -1.084079 -1.084079 -0.046284 0.0000 0.0000 0.0000
v -1.084079 1.084079 -0.046284 0.0000 0.0000 0.0000
v 1.084079 -1.084079 -0.046284 0.0000 0.0000 0.0000
v 1.084079 1.084079 -0.046284 0.0000 0.0000 0.0000
vn -0.0000 -0.0000 1.0000
vt 0.062500 0.999900
vt 0.000100 0.937500
vt 0.062500 0.937500
vt 0.000000 0.000000
vt 0.000100 0.999900
s 0
usemtl middle
f 4/1/1 1/2/1 3/3/1
f 7/4/1 6/4/1 5/4/1
f 4/1/1 2/5/1 1/2/1
f 7/4/1 8/4/1 6/4/1
